HIERARCHY
ROOT Hips
{
  OFFSET -0.142555 90.2713 1.76272
  CHANNELS 6 Xposition Yposition Zposition Zrotation Xrotation Yrotation
  JOINT Spine
  {
    OFFSET 0 9.9235 -1.2273
    CHANNELS 6 Xposition Yposition Zposition Zrotation Xrotation Yrotation
    JOINT Spine1
    {
      OFFSET -0.0001 11.6454 -1.4223
      CHANNELS 6 Xposition Yposition Zposition Zrotation Xrotation Yrotation
      JOINT Spine2
      {
        OFFSET 0.0001 13.3602 -1.6265
        CHANNELS 6 Xposition Yposition Zposition Zrotation Xrotation Yrotation
        JOINT Neck
        {
          OFFSET 0 15.0325 0.7929
          CHANNELS 6 Xposition Yposition Zposition Zrotation Xrotation Yrotation
          JOINT Head
          {
            OFFSET 0 10.3218 3.1424
            CHANNELS 6 Xposition Yposition Zposition Zrotation Xrotation Yrotation
            JOINT HeadTop_End
            {
              OFFSET 0.0002 18.4747 6.6364
              CHANNELS 6 Xposition Yposition Zposition Zrotation Xrotation Yrotation
              End Site
              {
                OFFSET 0 0 0
              }
            }
            JOINT LeftEye
            {
              OFFSET 2.9479 7.6817 9.1207
              CHANNELS 6 Xposition Yposition Zposition Zrotation Xrotation Yrotation
              End Site
              {
                OFFSET 0 0 0
              }
            }
            JOINT RightEye
            {
              OFFSET -2.9445 7.6817 9.1205
              CHANNELS 6 Xposition Yposition Zposition Zrotation Xrotation Yrotation
              End Site
              {
                OFFSET 0 0 0
              }
            }
          }
        }
        JOINT LeftShoulder
        {
          OFFSET 6.1058 9.1104 0.7056
          CHANNELS 6 Xposition Yposition Zposition Zrotation Xrotation Yrotation
          JOINT LeftArm
          {
            OFFSET 12.655 -0.2659 -2.6009
            CHANNELS 6 Xposition Yposition Zposition Zrotation Xrotation Yrotation
            JOINT LeftForeArm
            {
              OFFSET 27.4047 0 0
              CHANNELS 6 Xposition Yposition Zposition Zrotation Xrotation Yrotation
              JOINT LeftHand
              {
                OFFSET 27.6145 0 0
                CHANNELS 6 Xposition Yposition Zposition Zrotation Xrotation Yrotation
                JOINT LeftHandMiddle1
                {
                  OFFSET 12.7755 0 0
                  CHANNELS 6 Xposition Yposition Zposition Zrotation Xrotation Yrotation
                  JOINT LeftHandMiddle2
                  {
                    OFFSET 3.614 0 0
                    CHANNELS 6 Xposition Yposition Zposition Zrotation Xrotation Yrotation
                    JOINT LeftHandMiddle3
                    {
                      OFFSET 3.4598 0 0
                      CHANNELS 6 Xposition Yposition Zposition Zrotation Xrotation Yrotation
                      End Site
                      {
                        OFFSET 3.6802 0 0
                      }
                    }
                  }
                }
                JOINT LeftHandThumb1
                {
                  OFFSET 3.7888 -2.167 3.0031
                  CHANNELS 6 Xposition Yposition Zposition Zrotation Xrotation Yrotation
                  JOINT LeftHandThumb2
                  {
                    OFFSET 3.6754 -2.122 2.122
                    CHANNELS 6 Xposition Yposition Zposition Zrotation Xrotation Yrotation
                    JOINT LeftHandThumb3
                    {
                      OFFSET 3.3944 -1.9597 1.9598
                      CHANNELS 6 Xposition Yposition Zposition Zrotation Xrotation Yrotation
                      End Site
                      {
                        OFFSET 2.6794 -1.5469 1.5469
                      }
                    }
                  }
                }
                JOINT LeftHandIndex1
                {
                  OFFSET 12.2666 -0.2317 2.8221
                  CHANNELS 6 Xposition Yposition Zposition Zrotation Xrotation Yrotation
                  JOINT LeftHandIndex2
                  {
                    OFFSET 3.892 0 0
                    CHANNELS 6 Xposition Yposition Zposition Zrotation Xrotation Yrotation
                    JOINT LeftHandIndex3
                    {
                      OFFSET 3.4152 0 0
                      CHANNELS 6 Xposition Yposition Zposition Zrotation Xrotation Yrotation
                      End Site
                      {
                        OFFSET 3.078 0 0
                      }
                    }
                  }
                }
                JOINT LeftHandRing1
                {
                  OFFSET 12.147 0.0099 -2.2166
                  CHANNELS 6 Xposition Yposition Zposition Zrotation Xrotation Yrotation
                  JOINT LeftHandRing2
                  {
                    OFFSET 3.6012 0 0
                    CHANNELS 6 Xposition Yposition Zposition Zrotation Xrotation Yrotation
                    JOINT LeftHandRing3
                    {
                      OFFSET 3.3073 0 0
                      CHANNELS 6 Xposition Yposition Zposition Zrotation Xrotation Yrotation
                      End Site
                      {
                        OFFSET 3.6601 0 0
                      }
                    }
                  }
                }
                JOINT LeftHandPinky1
                {
                  OFFSET 10.9082 -0.2264 -4.7258
                  CHANNELS 6 Xposition Yposition Zposition Zrotation Xrotation Yrotation
                  JOINT LeftHandPinky2
                  {
                    OFFSET 4.1367 0 0
                    CHANNELS 6 Xposition Yposition Zposition Zrotation Xrotation Yrotation
                    JOINT LeftHandPinky3
                    {
                      OFFSET 2.5948 0 0
                      CHANNELS 6 Xposition Yposition Zposition Zrotation Xrotation Yrotation
                      End Site
                      {
                        OFFSET 2.9239 0 0
                      }
                    }
                  }
                }
              }
            }
          }
        }
        JOINT RightShoulder
        {
          OFFSET -6.1057 9.1105 0.7056
          CHANNELS 6 Xposition Yposition Zposition Zrotation Xrotation Yrotation
          JOINT RightArm
          {
            OFFSET -12.655 -0.266 -2.6009
            CHANNELS 6 Xposition Yposition Zposition Zrotation Xrotation Yrotation
            JOINT RightForeArm
            {
              OFFSET -27.4047 0 0
              CHANNELS 6 Xposition Yposition Zposition Zrotation Xrotation Yrotation
              JOINT RightHand
              {
                OFFSET -27.6145 0 0
                CHANNELS 6 Xposition Yposition Zposition Zrotation Xrotation Yrotation
                JOINT RightHandMiddle1
                {
                  OFFSET -12.7755 0 0
                  CHANNELS 6 Xposition Yposition Zposition Zrotation Xrotation Yrotation
                  JOINT RightHandMiddle2
                  {
                    OFFSET -3.614 0 0
                    CHANNELS 6 Xposition Yposition Zposition Zrotation Xrotation Yrotation
                    JOINT RightHandMiddle3
                    {
                      OFFSET -3.4598 0 0
                      CHANNELS 6 Xposition Yposition Zposition Zrotation Xrotation Yrotation
                      End Site
                      {
                        OFFSET -3.6802 0 0
                      }
                    }
                  }
                }
                JOINT RightHandThumb1
                {
                  OFFSET -3.7888 -2.167 3.0031
                  CHANNELS 6 Xposition Yposition Zposition Zrotation Xrotation Yrotation
                  JOINT RightHandThumb2
                  {
                    OFFSET -3.6754 -2.122 2.122
                    CHANNELS 6 Xposition Yposition Zposition Zrotation Xrotation Yrotation
                    JOINT RightHandThumb3
                    {
                      OFFSET -3.3944 -1.9597 1.9598
                      CHANNELS 6 Xposition Yposition Zposition Zrotation Xrotation Yrotation
                      End Site
                      {
                        OFFSET -2.6794 -1.5469 1.5469
                      }
                    }
                  }
                }
                JOINT RightHandIndex1
                {
                  OFFSET -12.2666 -0.2317 2.8221
                  CHANNELS 6 Xposition Yposition Zposition Zrotation Xrotation Yrotation
                  JOINT RightHandIndex2
                  {
                    OFFSET -3.892 0 0
                    CHANNELS 6 Xposition Yposition Zposition Zrotation Xrotation Yrotation
                    JOINT RightHandIndex3
                    {
                      OFFSET -3.4152 0 0
                      CHANNELS 6 Xposition Yposition Zposition Zrotation Xrotation Yrotation
                      End Site
                      {
                        OFFSET -3.078 0 0
                      }
                    }
                  }
                }
                JOINT RightHandRing1
                {
                  OFFSET -12.147 0.0099 -2.2166
                  CHANNELS 6 Xposition Yposition Zposition Zrotation Xrotation Yrotation
                  JOINT RightHandRing2
                  {
                    OFFSET -3.6012 0 0
                    CHANNELS 6 Xposition Yposition Zposition Zrotation Xrotation Yrotation
                    JOINT RightHandRing3
                    {
                      OFFSET -3.3073 0 0
                      CHANNELS 6 Xposition Yposition Zposition Zrotation Xrotation Yrotation
                      End Site
                      {
                        OFFSET -3.6601 0 0
                      }
                    }
                  }
                }
                JOINT RightHandPinky1
                {
                  OFFSET -10.9082 -0.2264 -4.7258
                  CHANNELS 6 Xposition Yposition Zposition Zrotation Xrotation Yrotation
                  JOINT RightHandPinky2
                  {
                    OFFSET -4.1367 0 0
                    CHANNELS 6 Xposition Yposition Zposition Zrotation Xrotation Yrotation
                    JOINT RightHandPinky3
                    {
                      OFFSET -2.5948 0 0
                      CHANNELS 6 Xposition Yposition Zposition Zrotation Xrotation Yrotation
                      End Site
                      {
                        OFFSET -2.9239 0 0
                      }
                    }
                  }
                }
              }
            }
          }
        }
      }
    }
  }
  JOINT RightUpLeg
  {
    OFFSET -9.1245 -6.6564 -0.0554
    CHANNELS 6 Xposition Yposition Zposition Zrotation Xrotation Yrotation
    JOINT RightLeg
    {
      OFFSET -0.2447 -40.5954 -0.5145
      CHANNELS 6 Xposition Yposition Zposition Zrotation Xrotation Yrotation
      JOINT RightFoot
      {
        OFFSET 0.2447 -42.0479 -2.0602
        CHANNELS 6 Xposition Yposition Zposition Zrotation Xrotation Yrotation
        JOINT RightToeBase
        {
          OFFSET -0.3734 -10.4922 12.6407
          CHANNELS 6 Xposition Yposition Zposition Zrotation Xrotation Yrotation
          End Site
          {
            OFFSET 0 0 9.9925
          }
        }
      }
    }
  }
  JOINT LeftUpLeg
  {
    OFFSET 9.1245 -6.6564 -0.0554
    CHANNELS 6 Xposition Yposition Zposition Zrotation Xrotation Yrotation
    JOINT LeftLeg
    {
      OFFSET 0.2447 -40.5954 -0.517
      CHANNELS 6 Xposition Yposition Zposition Zrotation Xrotation Yrotation
      JOINT LeftFoot
      {
        OFFSET -0.2447 -42.048 -2.0576
        CHANNELS 6 Xposition Yposition Zposition Zrotation Xrotation Yrotation
        JOINT LeftToeBase
        {
          OFFSET 0.3734 -10.4922 12.6407
          CHANNELS 6 Xposition Yposition Zposition Zrotation Xrotation Yrotation
          End Site
          {
            OFFSET 0 0 9.9925
          }
        }
      }
    }
  }
}
MOTION
Frames:	4
Frame Time:	0.0166667
-0.142555 90.2713 1.76272 -2.01515 31.7519 -6.33172 -1.77636e-015 9.9235 -1.2273 -3.16236 14.1556 -2.32565 -0.0001 11.6454 -1.4223 -1.83149 10.4399 -1.46503 0.0001 13.3602 -1.6265 -1.86412 10.4515 -1.33941 0 15.0325 0.7929 0.478994 -13.1171 1.32827 -3.55271e-015 10.3218 3.1424 9.25635 -35.0256 9.81535 0.0002 18.4747 6.6364 -6.95746e-016 -9.54166e-015 -3.97569e-016 2.9479 7.6817 9.1207 -6.95746e-016 -9.54166e-015 -3.97569e-016 -2.9445 7.6817 9.1205 -6.95746e-016 -9.54166e-015 -3.97569e-016 6.1058 9.1104 0.7056 -11.9326 2.80666 -11.1437 12.655 -0.2659 -2.6009 -54.9948 -10.5255 -28.7435 27.4047 0 0 -1.56903e-005 7.63371e-006 -68.1621 27.6145 -3.55271e-015 0 28.9168 26.4611 -24.1127 12.7755 7.10543e-015 0 -38.3853 -2.68342 2.69141 3.614 0 0 -74.799 -4.33826 5.67242 3.4598 3.55271e-015 0 -74.7989 -4.33826 5.67239 3.7888 -2.167 3.0031 -4.07183 -5.95025 2.66566 3.6754 -2.122 2.122 1.96819 7.82283 20.5869 3.3944 -1.9597 1.9598 17.0246 1.7621 21.0561 12.2666 -0.2317 2.8221 -42.0151 12.091 -2.63096 3.892 -7.10543e-015 -7.10543e-015 -75.0326 -4.36143 5.67867 3.4152 -3.55271e-015 -3.55271e-015 -74.8212 -4.34047 5.67302 12.147 0.0099 -2.2166 -50.8235 -3.95286 9.24681 3.6012 7.10543e-015 0 -74.9036 -4.34863 5.67521 3.3073 -7.10543e-015 7.10543e-015 -74.7827 -4.33668 5.67196 10.9082 -0.2264 -4.7258 -71.8425 -18.905 15.012 4.1367 0 0 -74.8198 -4.34035 5.67296 2.5948 -7.10543e-015 3.55271e-015 -74.8198 -4.34034 5.67298 -6.1057 9.1105 0.7056 11.3686 1.73977 5.85116 -12.655 -0.266 -2.6009 59.9875 -18.0479 0.74766 -27.4047 -1.42109e-014 0 -9.3308e-006 4.16857e-007 39.9979 -27.6145 1.42109e-014 7.10543e-015 11.2825 -12.2702 7.96936 -12.7755 -1.42109e-014 0 51.3804 -3.51309 -5.11262 -3.614 1.77636e-015 -3.55271e-015 94.0972 -5.00282 -4.65767 -3.4598 0 0 56.544 -2.09514 -3.89461 -3.7888 -2.167 3.0031 7.96272 7.14582 7.94 -3.6754 -2.122 2.122 -2.91234 10.4887 -33.1802 -3.3944 -1.9597 1.9598 -16.7851 11.2706 -39.0113 -12.2666 -0.2317 2.8221 59.4001 0.575978 -2.07551 -3.892 8.88178e-016 1.77636e-015 94.0973 -5.00282 -4.65767 -3.4152 1.42109e-014 0 56.544 -2.09514 -3.89461 -12.147 0.0099 -2.2166 54.2004 -3.76373 -7.03631 -3.6012 -1.77636e-015 -7.10543e-015 94.1501 -5.00712 -4.65736 -3.3073 0 7.10543e-015 56.5325 -2.09437 -3.89409 -10.9082 -0.2264 -4.7258 58.3906 -12.9025 -11.0677 -4.1367 -1.77636e-015 0 94.0972 -5.00282 -4.65766 -2.5948 1.42109e-014 0 94.0972 -5.00283 -4.65767 -9.1245 -6.6564 -0.0554 -20.5767 -65.0148 -20.109 -0.2447 -40.5954 -0.5145 1.71169 66.5252 -11.4568 0.2447 -42.0479 -2.0602 1.88156 -9.21005 -2.30414 -0.3734 -10.4922 12.6407 -1.12537e-007 -11.3183 4.50384e-006 9.1245 -6.6564 -0.0554 6.81645 -58.7671 17.2391 0.2447 -40.5954 -0.517 8.82296 51.9062 -12.4438 -0.2447 -42.048 -2.0576 5.34171 -25.0418 21.4221 0.3734 -10.4922 12.6407 -7.7143e-005 -0.00015316 8.10775e-006 
-0.0719951 91.4726 5.89844 -2.63827 31.2544 -7.09548 -3.55271e-015 9.9235 -1.2273 -2.57801 13.2775 -2.45681 -0.0001 11.6454 -1.4223 -1.73024 9.23689 -1.55767 0.0001 13.3602 -1.6265 -1.74468 9.1354 -1.4473 -3.55271e-015 15.0325 0.7929 0.597766 -12.7543 1.53811 0 10.3218 3.1424 9.8659 -30.2304 9.26109 0.0002 18.4747 6.6364 -0 0 7.95139e-016 2.9479 7.6817 9.1207 -0 0 7.95139e-016 -2.9445 7.6817 9.1205 -0 0 7.95139e-016 6.1058 9.1104 0.7056 -12.1619 2.69423 -10.8965 12.655 -0.2659 -2.6009 -55.753 -8.82398 -23.8986 27.4047 3.55271e-015 7.10543e-015 -1.83188e-005 -6.63945e-006 -65.6253 27.6145 -3.55271e-015 0 25.2584 29.3307 -21.8058 12.7755 0 -7.10543e-015 -38.1056 -2.65631 2.66431 3.614 7.10543e-015 0 -74.4477 -4.30352 5.66281 3.4598 0 0 -74.492 -4.3079 5.66405 3.7888 -2.167 3.0031 -4.07183 -5.95025 2.66566 3.6754 -2.122 2.122 1.96819 7.82283 20.5869 3.3944 -1.9597 1.9598 17.0246 1.7621 21.0561 12.2666 -0.2317 2.8221 -41.6517 12.1275 -2.68914 3.892 7.10543e-015 7.10543e-015 -74.6334 -4.32188 5.66792 3.4152 7.10543e-015 0 -74.4706 -4.30576 5.66341 12.147 0.0099 -2.2166 -50.5869 -3.92751 9.26523 3.6012 0 0 -74.5522 -4.31386 5.66572 3.3073 0 3.55271e-015 -74.5118 -4.30984 5.66456 10.9082 -0.2264 -4.7258 -71.6297 -18.8534 15.0734 4.1367 -3.55271e-015 0 -74.5487 -4.3135 5.6656 2.5948 0 0 -74.5786 -4.31648 5.66643 -6.1057 9.1105 0.7056 10.9614 1.75622 5.86194 -12.655 -0.266 -2.6009 57.1769 -20.0044 -0.571478 -27.4047 0 1.42109e-014 -4.89924e-006 1.61515e-006 39.7653 -27.6145 0 3.55271e-015 10.9894 -14.5255 8.32419 -12.7755 0 3.10862e-015 51.0753 -3.48588 -5.10637 -3.614 0 -8.88178e-016 93.5487 -4.95829 -4.66066 -3.4598 0 0 56.0547 -2.06195 -3.87245 -3.7888 -2.167 3.0031 7.8056 6.96358 7.94812 -3.6754 -2.122 2.122 -2.91234 10.4887 -33.1802 -3.3944 -1.9597 1.9598 -16.7851 11.2706 -39.0113 -12.2666 -0.2317 2.8221 59.0534 0.588452 -2.04375 -3.892 -1.77636e-015 -2.44249e-015 93.4796 -4.95266 -4.661 -3.4152 0 1.77636e-015 55.9967 -2.05803 -3.8698 -12.147 0.0099 -2.2166 53.9286 -3.7392 -7.04413 -3.6012 5.32907e-015 1.77636e-015 93.6596 -4.96729 -4.66009 -3.3073 0 0 56.0925 -2.06451 -3.87418 -10.9082 -0.2264 -4.7258 58.1462 -12.8558 -11.1024 -4.1367 2.66454e-015 0 93.6563 -4.96702 -4.66011 -2.5948 0 0 93.6985 -4.97045 -4.65987 -9.1245 -6.6564 -0.0554 -15.7129 -63.8198 -16.6841 -0.2447 -40.5954 -0.5145 1.36175 59.9253 -4.69325 0.2447 -42.0479 -2.0602 3.71963 -6.80693 -8.14764 -0.3734 -10.4922 12.6407 -5.71964e-006 -5.93644 -3.21257e-005 9.1245 -6.6564 -0.0554 7.10722 -53.4299 17.0628 0.2447 -40.5954 -0.517 8.05271 48.3287 -11.3838 -0.2447 -42.048 -2.0576 4.77858 -26.0874 19.729 0.3734 -10.4922 12.6407 2.39314e-005 -0.136319 1.27761e-005 
0.004453 92.7196 10.5271 -3.39111 30.4577 -7.87957 -1.77636e-015 9.9235 -1.2273 -1.9136 12.2812 -2.43593 -0.0001 11.6454 -1.4223 -1.47665 8.00776 -1.72476 0.0001 13.3602 -1.6265 -1.44777 7.89575 -1.63848 0 15.0325 0.7929 0.82243 -11.7967 1.70265 -3.55271e-015 10.3218 3.1424 9.80531 -24.4505 9.05695 0.0002 18.4747 6.6364 0 0 -1.59028e-015 2.9479 7.6817 9.1207 0 0 -1.59028e-015 -2.9445 7.6817 9.1205 0 0 -1.59028e-015 6.1058 9.1104 0.7056 -12.7353 2.57337 -10.2836 12.655 -0.2659 -2.6009 -56.0701 -7.78254 -19.1945 27.4047 0 0 -1.35922e-005 9.00404e-006 -62.0952 27.6145 3.55271e-015 7.10543e-015 21.1239 32.2066 -19.4709 12.7755 -1.42109e-014 0 -37.3049 -2.57908 2.58633 3.614 0 -7.10543e-015 -73.4388 -4.20399 5.63411 3.4598 0 0 -73.6081 -4.22068 5.63904 3.7888 -2.167 3.0031 -4.07183 -5.95025 2.66566 3.6754 -2.122 2.122 1.96819 7.82283 20.5869 3.3944 -1.9597 1.9598 17.0246 1.7621 21.0561 12.2666 -0.2317 2.8221 -40.615 12.231 -2.85684 3.892 0 -7.10543e-015 -73.4926 -4.20927 5.63566 3.4152 -1.42109e-014 0 -73.4635 -4.20643 5.63484 12.147 0.0099 -2.2166 -49.9074 -3.85485 9.31704 3.6012 -3.55271e-015 0 -73.543 -4.21426 5.63716 3.3073 0 0 -73.7294 -4.23262 5.64254 10.9082 -0.2264 -4.7258 -71.0174 -18.7035 15.2486 4.1367 0 -1.77636e-015 -73.7657 -4.2362 5.64362 2.5948 0 -3.55271e-015 -73.8807 -4.24754 5.6469 -6.1057 9.1105 0.7056 9.88036 1.78819 5.95925 -12.655 -0.266 -2.6009 53.7703 -21.2311 -2.35267 -27.4047 1.42109e-014 0 2.78426e-005 1.28277e-006 39.7147 -27.6145 1.42109e-014 -3.55271e-015 10.525 -16.9978 8.29081 -12.7755 0 1.77636e-015 50.213 -3.40909 -5.08786 -3.614 3.55271e-015 8.88178e-016 91.993 -4.83183 -4.6668 -3.4598 0 0 54.662 -1.96852 -3.80786 -3.7888 -2.167 3.0031 7.36434 6.45013 7.96935 -3.6754 -2.122 2.122 -2.91234 10.4887 -33.1802 -3.3944 -1.9597 1.9598 -16.7851 11.2706 -39.0113 -12.2666 -0.2317 2.8221 58.0778 0.622502 -1.95396 -3.892 -5.32907e-015 1.77636e-015 91.7345 -4.81079 -4.66748 -3.4152 -1.42109e-014 0 54.4439 -1.95403 -3.79754 -12.147 0.0099 -2.2166 53.1578 -3.66974 -7.06537 -3.6012 -7.10543e-015 2.22045e-016 92.2636 -4.85385 -4.66598 -3.3073 -1.42109e-014 -1.77636e-015 54.8366 -1.98015 -3.81608 -10.9082 -0.2264 -4.7258 57.451 -12.7222 -11.2 -4.1367 1.77636e-015 1.77636e-015 92.3976 -4.86473 -4.66553 -2.5948 0 3.55271e-015 92.5574 -4.87773 -4.66498 -9.1245 -6.6564 -0.0554 -10.3881 -62.1518 -12.6842 -0.2447 -40.5954 -0.5145 1.07295 50.8779 -7.03006 0.2447 -42.0479 -2.0602 6.75508 -1.86848 -5.71539 -0.3734 -10.4922 12.6407 1.86076e-006 -5.00441 6.70054e-006 9.1245 -6.6564 -0.0554 8.80828 -49.6107 18.0455 0.2447 -40.5954 -0.517 8.18178 48.7348 -10.7558 -0.2447 -42.048 -2.0576 1.84136 -22.3883 14.2754 0.3734 -10.4922 12.6407 0.727568 -9.22184 0.0952938 
0.0428398 93.9803 15.5109 -4.04774 29.4235 -8.61218 0 9.9235 -1.2273 -1.28359 11.2341 -2.32343 -0.0001 11.6454 -1.4223 -1.12434 6.8272 -1.91787 0.0001 13.3602 -1.6265 -1.04002 6.77191 -1.8535 0 15.0325 0.7929 1.10016 -10.4368 1.81597 -3.55271e-015 10.3218 3.1424 9.10851 -18.134 9.10962 0.0002 18.4747 6.6364 0 0 -0 2.9479 7.6817 9.1207 0 0 -0 -2.9445 7.6817 9.1205 0 0 -0 6.1058 9.1104 0.7056 -13.4805 2.45271 -9.49898 12.655 -0.2659 -2.6009 -56.3906 -7.57334 -12.3896 27.4047 0 0 -6.55361e-006 9.81821e-006 -58.0575 27.6145 -3.55271e-015 0 17.9062 35.1732 -18.3925 12.7755 0 0 -36.0408 -2.45845 2.46228 3.614 -7.10543e-015 0 -71.8399 -4.04736 5.58501 3.4598 -7.10543e-015 0 -72.2022 -4.08273 5.59651 3.7888 -2.167 3.0031 -4.07183 -5.95025 2.66566 3.6754 -2.122 2.122 1.96819 7.82283 20.5869 3.3944 -1.9597 1.9598 17.0246 1.7621 21.0561 12.2666 -0.2317 2.8221 -38.988 12.3915 -3.12369 3.892 0 0 -71.6911 -4.03285 5.58022 3.4152 0 0 -71.8671 -4.05001 5.58587 12.147 0.0099 -2.2166 -48.8304 -3.74025 9.39603 3.6012 -3.55271e-015 0 -71.9436 -4.0575 5.58833 3.3073 -7.10543e-015 0 -72.4812 -4.11002 5.60523 10.9082 -0.2264 -4.7258 -70.0453 -18.462 15.5231 4.1367 3.55271e-015 0 -72.5167 -4.1135 5.60631 2.5948 -1.42109e-014 0 -72.7642 -4.13775 5.61391 -6.1057 9.1105 0.7056 8.33761 1.80963 6.24149 -12.655 -0.266 -2.6009 50.8224 -22.1124 -4.43509 -27.4047 -1.42109e-014 0 -1.07168e-005 1.78138e-005 40.1056 -27.6145 0 0 9.12953 -19.2742 7.47969 -12.7755 0 -3.55271e-015 48.8732 -3.29037 -5.05683 -3.614 0 0 89.5648 -4.6342 -4.66949 -3.4598 0 0 52.4787 -1.82529 -3.70209 -3.7888 -2.167 3.0031 6.68505 5.65472 7.99742 -3.6754 -2.122 2.122 -2.91234 10.4887 -33.1802 -3.3944 -1.9597 1.9598 -16.7851 11.2706 -39.0113 -12.2666 -0.2317 2.8221 56.57 0.672101 -1.81411 -3.892 -3.55271e-015 -3.55271e-015 89.0234 -4.59012 -4.66895 -3.4152 0 3.55271e-015 52.0199 -1.79571 -3.67917 -12.147 0.0099 -2.2166 51.9546 -3.56168 -7.09578 -3.6012 0 -5.32907e-015 90.0759 -4.67581 -4.66963 -3.3073 0 0 52.8607 -1.85006 -3.72098 -10.9082 -0.2264 -4.7258 56.3626 -12.5104 -11.3496 -4.1367 -3.55271e-015 1.77636e-015 90.4177 -4.70364 -4.66951 -2.5948 1.42109e-014 5.77316e-015 90.7568 -4.73124 -4.66923 -9.1245 -6.6564 -0.0554 -6.01717 -59.0369 -9.20123 -0.2447 -40.5954 -0.5145 0.915342 42.2529 -9.02533 0.2447 -42.0479 -2.0602 9.88182 1.93522 -4.22713 -0.3734 -10.4922 12.6407 -1.56782e-006 -3.6245 -3.43394e-006 9.1245 -6.6564 -0.0554 9.85311 -45.1346 18.693 0.2447 -40.5954 -0.517 8.12523 48.3062 -10.0664 -0.2447 -42.048 -2.0576 0.11062 -17.0341 8.85654 0.3734 -10.4922 12.6407 4.21322e-006 -15.8966 -1.04207e-006 
